<?xml version="1.0" standalone="no"?>
<!DOCTYPE svg PUBLIC "-//W3C//DTD SVG 20010904//EN"
 "http://www.w3.org/TR/2001/REC-SVG-20010904/DTD/svg10.dtd">
<svg version="1.0" xmlns="http://www.w3.org/2000/svg"
 width="400.000000pt" height="400.000000pt" viewBox="0 0 400.000000 400.000000"
 preserveAspectRatio="xMidYMid meet">

<g transform="translate(0.000000,400.000000) scale(0.100000,-0.100000)"
fill="#000000" stroke="none">
<path d="M2024 3689 c-18 -9 -44 -47 -44 -64 0 -15 39 -1 43 15 4 15 14 20 36
20 65 0 47 -79 -34 -145 -66 -55 -61 -65 35 -65 64 0 80 3 80 15 0 11 -12 15
-52 15 l-52 0 41 43 c66 68 78 107 46 146 -21 25 -70 35 -99 20z"/>
<path d="M1860 3670 c0 -11 7 -20 15 -20 12 0 15 -18 15 -105 0 -98 1 -105 20
-105 19 0 20 7 20 125 l0 125 -35 0 c-28 0 -35 -4 -35 -20z"/>
<path d="M1150 3465 c0 -19 67 -127 73 -118 3 5 -8 31 -25 58 -35 57 -48 74
-48 60z"/>
<path d="M2812 3411 c-34 -61 -37 -71 -24 -71 7 0 72 111 72 124 0 20 -20 -2
-48 -53z"/>
<path d="M530 2842 c0 -13 110 -73 121 -66 6 3 -15 21 -48 40 -60 35 -73 39
-73 26z"/>
<path d="M3410 2813 c-35 -20 -59 -38 -53 -40 6 -2 35 10 64 28 62 36 64 37
58 43 -3 3 -34 -11 -69 -31z"/>
<path d="M353 2120 c-46 -19 -59 -95 -21 -130 24 -22 58 -26 89 -10 16 9 19 7
19 -10 0 -37 -19 -60 -49 -60 -16 0 -31 7 -35 15 -7 19 -36 20 -36 2 0 -43 93
-68 126 -35 36 35 37 179 2 214 -18 18 -68 26 -95 14z m76 -52 c17 -46 -13
-78 -59 -63 -15 5 -20 15 -20 39 0 40 5 46 42 46 20 0 31 -6 37 -22z"/>
<path d="M3589 2119 c-14 -5 -31 -21 -37 -34 -10 -22 -9 -25 8 -25 10 0 23 7
28 16 6 10 19 14 38 12 23 -2 30 -8 32 -31 3 -23 -1 -28 -27 -33 -39 -8 -40
-30 -2 -37 31 -6 46 -33 35 -61 -8 -21 -72 -22 -80 -1 -7 17 -44 21 -44 5 0
-17 38 -49 65 -56 36 -9 82 13 93 44 11 32 -1 70 -23 78 -14 6 -13 9 4 26 56
51 -14 126 -90 97z"/>
<path d="M3345 1220 c-8 -13 121 -87 133 -76 7 8 6 9 -65 49 -35 20 -65 32
-68 27z"/>
<path d="M587 1184 c-32 -20 -56 -38 -53 -41 6 -7 126 59 126 69 0 14 -13 8
-73 -28z"/>
<path d="M2777 654 c-5 -5 12 -38 63 -124 4 -8 11 -13 14 -10 2 3 -12 36 -33
73 -20 37 -40 64 -44 61z"/>
<path d="M1183 591 c-35 -63 -38 -71 -25 -71 9 0 72 104 72 119 0 25 -17 8
-47 -48z"/>
<path d="M1970 547 c-38 -20 -51 -54 -48 -129 4 -73 20 -101 65 -113 79 -19
135 82 77 139 -18 19 -75 21 -92 4 -18 -18 -24 -4 -14 33 6 27 14 35 36 37 16
2 33 -1 39 -7 13 -13 47 -15 47 -3 0 15 -33 40 -60 46 -14 4 -36 0 -50 -7z
m73 -138 c5 -9 7 -28 3 -43 -6 -24 -11 -27 -44 -24 -32 3 -37 7 -40 31 -2 16
2 35 9 43 15 19 59 14 72 -7z"/>
</g>
</svg>
